<svg xmlns="http://www.w3.org/2000/svg" xmlns:xlink="http://www.w3.org/1999/xlink" viewBox="0 0 512 512">
  <defs>
    <linearGradient id="a" x1="93.00003" y1="92.99997" x2="516.79833" y2="516.79827" gradientUnits="userSpaceOnUse">
      <stop offset="0" stop-color="#e0cee5"/>
      <stop offset="1" stop-color="#48c7f4"/>
    </linearGradient>
  </defs>
  <title>global</title>
  <path d="M459.694,263.5a26.69472,26.69472,0,1,0,.001-15H414.843a158.13505,158.13505,0,0,0-6.889-39.432l13.279-13.248h14.218a26.693,26.693,0,1,0,0-15H418.132a7.50073,7.50073,0,0,0-5.297,2.19L402.25,193.57a159.96477,159.96477,0,0,0-83.82-83.82l10.56-10.584a7.50071,7.50071,0,0,0,2.19-5.297V76.55a26.692,26.692,0,1,0-15,0V90.768l-13.248,13.279A158.198,158.198,0,0,0,263.5,97.158V52.306a26.6947,26.6947,0,1,0-15-.001V97.163a159.35984,159.35984,0,0,0-39.482,6.833L195.82,90.767V76.55a26.693,26.693,0,1,0-15,0V93.869a7.50071,7.50071,0,0,0,2.19,5.297l10.475,10.499a158.72664,158.72664,0,0,0-63.329,49.1,7.49974,7.49974,0,1,0,11.863,9.179q4.46851-5.775,9.425-10.999a159.43972,159.43972,0,0,0,22.815,16.625c-8.122,22.492-12.804,48.111-13.538,74.928H112.167a142.48257,142.48257,0,0,1,12.678-52.1,7.50051,7.50051,0,1,0-13.653-6.215c-.507,1.113-.993,2.232-1.473,3.354L99.167,183.01a7.50254,7.50254,0,0,0-5.297-2.19H76.55a26.692,26.692,0,1,0,0,15H90.768l13.255,13.224A157.61665,157.61665,0,0,0,97.158,248.5H52.306a26.693,26.693,0,1,0,0,15H97.157a158.1358,158.1358,0,0,0,6.889,39.432L90.767,316.18H76.55a26.693,26.693,0,1,0,0,15H93.869a7.50246,7.50246,0,0,0,5.297-2.19l10.584-10.56a159.96806,159.96806,0,0,0,83.819,83.819l-10.56,10.584a7.49653,7.49653,0,0,0-2.19,5.297v17.319a26.693,26.693,0,1,0,15,0V421.231l13.248-13.279a158.19833,158.19833,0,0,0,39.432,6.889v44.852a26.6969,26.6969,0,1,0,15.001.002V414.843a158.18047,158.18047,0,0,0,39.432-6.889l13.248,13.279v14.218a26.693,26.693,0,1,0,15,0V418.132a7.50073,7.50073,0,0,0-2.19-5.297l-10.56-10.584a159.96489,159.96489,0,0,0,83.82-83.82l10.584,10.561a7.50074,7.50074,0,0,0,5.297,2.19H435.45a26.692,26.692,0,1,0,0-15H421.232l-13.279-13.248a158.19788,158.19788,0,0,0,6.889-39.432h44.852Zm1.369-86.874a11.6925,11.6925,0,1,1-11.693,11.693A11.70607,11.70607,0,0,1,461.063,176.626ZM311.988,50.937A11.69249,11.69249,0,1,1,323.68,62.63,11.70522,11.70522,0,0,1,311.988,50.937Zm-135.362,0A11.693,11.693,0,1,1,188.319,62.63,11.70608,11.70608,0,0,1,176.626,50.937ZM50.937,200.012A11.6925,11.6925,0,1,1,62.63,188.32,11.70608,11.70608,0,0,1,50.937,200.012Zm0,135.362A11.69249,11.69249,0,1,1,62.63,323.681,11.70694,11.70694,0,0,1,50.937,335.374ZM200.012,461.063a11.693,11.693,0,1,1-11.693-11.693A11.70607,11.70607,0,0,1,200.012,461.063Zm135.362,0a11.69249,11.69249,0,1,1-11.693-11.693A11.70607,11.70607,0,0,1,335.374,461.063ZM461.063,311.988A11.69249,11.69249,0,1,1,449.37,323.68,11.70521,11.70521,0,0,1,461.063,311.988Zm24.244-67.681A11.693,11.693,0,1,1,473.615,256,11.70694,11.70694,0,0,1,485.307,244.307ZM399.83,248.5H351.278c-.734-26.817-5.416-52.436-13.538-74.928a159.381,159.381,0,0,0,22.761-16.576A143.51985,143.51985,0,0,1,399.83,248.5Zm-76.149,15h12.594c-.699,24.267-4.788,47.404-11.872,67.761a158.29865,158.29865,0,0,0-60.903-15.24V263.5h25.094a7.5,7.5,0,1,0,0-15H263.5V195.979a158.29877,158.29877,0,0,0,60.903-15.24c7.084,20.357,11.172,43.494,11.872,67.761H323.681a7.5,7.5,0,0,0,0,15ZM248.5,316.021a158.28986,158.28986,0,0,0-60.902,15.24c-7.084-20.357-11.172-43.494-11.872-67.761H248.5Zm0,15.021v68.343c-17.928-3.049-34.803-16.982-48.156-40.004a152.21087,152.21087,0,0,1-7.189-14.151A143.34745,143.34745,0,0,1,248.5,331.042Zm-61.131,35.865a126.8939,126.8939,0,0,0,17.471,23.72,144.16293,144.16293,0,0,1-42.412-25.234,144.49015,144.49015,0,0,1,17.564-12.885C182.271,357.51,184.717,362.335,187.369,366.907Zm144.639-14.398a144.402,144.402,0,0,1,17.564,12.884,144.16767,144.16767,0,0,1-42.411,25.233,126.80917,126.80917,0,0,0,17.471-23.719C327.284,362.335,329.729,357.51,332.008,352.509Zm-20.352,6.872c-13.353,23.022-30.228,36.955-48.156,40.004V331.042a143.33,143.33,0,0,1,55.345,14.188A151.96512,151.96512,0,0,1,311.656,359.381ZM263.5,112.615c17.928,3.049,34.803,16.982,48.156,40.004a152.206,152.206,0,0,1,7.189,14.151A143.3297,143.3297,0,0,1,263.5,180.958Zm61.132,32.478a126.85186,126.85186,0,0,0-17.471-23.719,144.155,144.155,0,0,1,42.411,25.233,144.3745,144.3745,0,0,1-17.564,12.884C329.729,154.49,327.284,149.665,324.632,145.093ZM248.5,112.615v68.343a143.31178,143.31178,0,0,1-55.345-14.188,152.21087,152.21087,0,0,1,7.189-14.151C213.697,129.597,230.572,115.665,248.5,112.615Zm-4.193-85.922A11.693,11.693,0,1,1,256,38.386,11.70692,11.70692,0,0,1,244.307,26.693Zm-81.966,119.84a142.51768,142.51768,0,0,1,42.636-25.304,126.69617,126.69617,0,0,0-17.609,23.864c-2.652,4.572-5.097,9.397-7.376,14.398A144.367,144.367,0,0,1,162.341,146.533Zm25.257,34.206a158.28991,158.28991,0,0,0,60.902,15.24V248.5H175.726C176.426,224.233,180.514,201.096,187.598,180.739ZM26.693,267.693A11.693,11.693,0,1,1,38.386,256,11.70694,11.70694,0,0,1,26.693,267.693ZM112.17,263.5h48.553c.734,26.817,5.416,52.436,13.538,74.928A159.3902,159.3902,0,0,0,151.5,355.005,143.52072,143.52072,0,0,1,112.17,263.5ZM267.693,485.307A11.693,11.693,0,1,1,256,473.615,11.70694,11.70694,0,0,1,267.693,485.307Zm92.808-130.302a159.306,159.306,0,0,0-22.761-16.576c8.122-22.492,12.804-48.111,13.538-74.928H399.83A143.52464,143.52464,0,0,1,360.501,355.005Z" style="fill: url(#a)"/>
</svg>
