<svg xmlns="http://www.w3.org/2000/svg" xmlns:xlink="http://www.w3.org/1999/xlink" viewBox="0 0 511.05699 511.99902">
  <defs>
    <linearGradient id="a" x1="0.7355" y1="0.2645" x2="509.15757" y2="508.68657" gradientUnits="userSpaceOnUse">
      <stop offset="0" stop-color="#e0cee5"/>
      <stop offset="1" stop-color="#48c7f4"/>
    </linearGradient>
    <linearGradient id="b" x1="0.40663" y1="0.59337" x2="508.82869" y2="509.01544" xlink:href="#a"/>
    <linearGradient id="c" x1="21.48978" y1="-20.48978" x2="529.91185" y2="487.93229" xlink:href="#a"/>
    <linearGradient id="d" x1="0.5" y1="0.5" x2="508.92207" y2="508.92207" xlink:href="#a"/>
  </defs>
  <title>networking</title>
  <path d="M424.32049,350.67148a73.58739,73.58739,0,0,1,71.47,57.38,7.48586,7.48586,0,1,0,14.622-3.217,88.10708,88.10708,0,0,0-142.875-48.353l-34.159-34.159a102.07476,102.07476,0,0,0,0-133.586l33.217-33.217a88.27668,88.27668,0,1,0-10.585-10.587l-33.217,33.217a102.07051,102.07051,0,0,0-133.584.001l-33.729-33.729a88.13409,88.13409,0,1,0-153.699-76.147,7.48629,7.48629,0,1,0,14.59,3.363,73.18129,73.18129,0,1,1,129.846,60.377v-2.522a31.96467,31.96467,0,0,0-30.607-31.896,31.73028,31.73028,0,0,0,4.916-16.992v-16.408a31.93,31.93,0,0,0-63.86,0v16.407a31.73186,31.73186,0,0,0,4.917,16.993,31.96552,31.96552,0,0,0-30.558,31.895v4.867a72.33769,72.33769,0,0,1-14.815-30.409,7.48585,7.48585,0,1,0-14.622,3.217,88.1082,88.1082,0,0,0,139.585,50.999,7.49824,7.49824,0,0,0,3.852-3.025l33.57,33.57a101.61534,101.61534,0,0,0-22.969,47.148,7.48574,7.48574,0,1,0,14.695,2.864,87.29406,87.29406,0,1,1,0,33.614,7.48575,7.48575,0,1,0-14.695,2.864,101.6012,101.6012,0,0,0,22.969,47.148l-33.191,33.191a88.25941,88.25941,0,1,0,10.587,10.587l33.218-33.219a102.07051,102.07051,0,0,0,133.584.001l34.159,34.159a88.13249,88.13249,0,1,0,153.267,76.658,7.48628,7.48628,0,1,0-14.59-3.363,73.16849,73.16849,0,0,1-14.655,29.961v-6.077a31.96468,31.96468,0,0,0-30.607-31.896,31.73017,31.73017,0,0,0,4.916-16.992v-16.408a31.93,31.93,0,0,0-63.86,0v16.408a31.73212,31.73212,0,0,0,4.917,16.993,31.96553,31.96553,0,0,0-30.558,31.895v3.463a73.13757,73.13757,0,0,1,58.538-117.03808Zm-352.681-286.475a16.958,16.958,0,0,1,33.916,0v16.407a16.958,16.958,0,0,1-33.916,0Zm-25.641,83.959v-18.664a16.97658,16.97658,0,0,1,16.958-16.957h51.332a16.97722,16.97722,0,0,1,16.958,16.957v17.417a72.77786,72.77786,0,0,1-85.248,1.247Zm334.757-.577v-18.087a16.97658,16.97658,0,0,1,16.958-16.957h51.332a16.97723,16.97723,0,0,1,16.958,16.957v18.087a72.93632,72.93632,0,0,1-85.248,0Zm25.641-66.975v-16.407a16.958,16.958,0,0,1,33.916,0v16.407a16.958,16.958,0,0,1-33.916,0Zm16.983-65.631a73.11844,73.11844,0,0,1,57.596,118.239v-3.72a31.96467,31.96467,0,0,0-30.607-31.896,31.73015,31.73015,0,0,0,4.916-16.992v-16.407a31.93,31.93,0,1,0-63.86,0v16.407a31.73211,31.73211,0,0,0,4.917,16.993,31.96554,31.96554,0,0,0-30.558,31.895v3.72a73.11844,73.11844,0,0,1,57.596-118.239Zm-377.381,467.363v-18.087a16.97657,16.97657,0,0,1,16.958-16.957h51.332a16.97722,16.97722,0,0,1,16.958,16.957v18.087a72.9363,72.9363,0,0,1-85.248,0Zm25.641-66.974v-16.408a16.958,16.958,0,0,1,33.916,0v16.408a16.958,16.958,0,1,1-33.916,0Zm74.578,52.606v-3.719a31.96467,31.96467,0,0,0-30.607-31.896,31.73022,31.73022,0,0,0,4.916-16.992v-16.408a31.93,31.93,0,0,0-63.86,0v16.408a31.732,31.732,0,0,0,4.917,16.993,31.96549,31.96549,0,0,0-30.558,31.895v3.719a73.12385,73.12385,0,0,1,108.733-97.337,7.25188,7.25188,0,0,0,1.139,1.14,72.97958,72.97958,0,0,1,5.32,96.197Zm260.179-69.015a16.958,16.958,0,0,1,33.916,0v16.408a16.958,16.958,0,1,1-33.916,0Zm-8.683,48.339h51.332a16.97722,16.97722,0,0,1,16.958,16.957v19.866a73.35778,73.35778,0,0,1-85.247-1.507v-18.358A16.9753,16.9753,0,0,1,397.71349,447.29147Z" transform="translate(-0.4715 -0.00049)" style="fill: url(#a)"/>
  <g>
    <path d="M288.97363,223.46045a5.50647,5.50647,0,0,0-.86718-7.72949A50.95732,50.95732,0,0,0,256,204.5a51.5,51.5,0,0,0,0,103,50.98856,50.98856,0,0,0,31.66016-10.87891,5.49951,5.49951,0,0,0-3.38282-9.83593,5.53092,5.53092,0,0,0-3.38379,1.16406A40.09632,40.09632,0,0,1,256,296.5a40.5,40.5,0,0,1,0-81,40.06223,40.06223,0,0,1,25.24316,8.82764,5.50071,5.50071,0,0,0,7.73047-.86719Z" transform="translate(-0.4715 -0.00049)" style="fill: url(#b)"/>
    <path d="M302.23242,233.28711a5.49988,5.49988,0,1,0-9.87012,4.85547A40.61017,40.61017,0,0,1,292.751,273.044a5.50158,5.50158,0,0,0,4.98437,7.82031,5.52363,5.52363,0,0,0,4.99024-3.18262,51.60905,51.60905,0,0,0-.49317-44.39453Z" transform="translate(-0.4715 -0.00049)" style="fill: url(#c)"/>
    <path d="M256,229.5A26.5,26.5,0,1,0,282.5,256,26.52982,26.52982,0,0,0,256,229.5Zm0,11a15.479,15.479,0,0,1,11.83887,5.50146,10.00009,10.00009,0,0,0-.001,19.99756A15.49821,15.49821,0,1,1,256,240.5Z" transform="translate(-0.4715 -0.00049)" style="fill: url(#d)"/>
  </g>
</svg>
