<svg width="42" height="42" viewBox="0 0 42 42" fill="none" xmlns="http://www.w3.org/2000/svg">
<path fill-rule="evenodd" clip-rule="evenodd" d="M15.7737 24.7515C14.3768 24.7515 13.2258 23.5252 13.2258 22.0192C13.2258 20.5132 14.3545 19.2869 15.7737 19.2869C17.204 19.2869 18.3438 20.5239 18.3214 22.0192C18.3214 23.5252 17.1928 24.7515 15.7737 24.7515ZM25.1938 24.7515C23.797 24.7515 22.646 23.5252 22.646 22.0192C22.646 20.5132 23.7746 19.2869 25.1938 19.2869C26.6242 19.2869 27.7639 20.5239 27.7416 22.0192C27.7416 23.5252 26.6242 24.7515 25.1938 24.7515Z" fill="#79C043"/>
<path fill-rule="evenodd" clip-rule="evenodd" d="M42 21C42 32.598 32.598 42 21 42C9.40202 42 0 32.598 0 21C0 9.40202 9.40202 0 21 0C32.598 0 42 9.40202 42 21ZM24.5289 10.6586C26.5549 10.9931 28.4925 11.5773 30.2995 12.3701C30.3151 12.3765 30.3285 12.3873 30.3363 12.4023C33.5378 16.9053 35.119 21.9847 34.5279 27.8323C34.5257 27.8571 34.5123 27.8797 34.491 27.8947C32.0662 29.5975 29.7173 30.6313 27.4008 31.3165C27.3639 31.3273 27.3237 31.3144 27.3013 31.2843C26.7661 30.5721 26.28 29.8213 25.8542 29.0328C25.8296 28.9866 25.852 28.9306 25.9023 28.9123C26.6744 28.6337 27.4086 28.3002 28.1148 27.9055C28.1707 27.8743 28.1741 27.7979 28.1227 27.7613C27.9729 27.6548 27.8243 27.5429 27.6824 27.4311C27.6556 27.4106 27.6198 27.4063 27.5896 27.4203C23.0047 29.4459 17.9817 29.4459 13.3421 27.4203C13.3119 27.4074 13.2761 27.4117 13.2504 27.4321C13.1085 27.544 12.9599 27.6548 12.8112 27.7613C12.7598 27.7979 12.7643 27.8743 12.8202 27.9055C13.5264 28.2927 14.2606 28.6337 15.0316 28.9134C15.0819 28.9317 15.1054 28.9866 15.0808 29.0328C14.664 29.8224 14.1779 30.5732 13.6326 31.2853C13.6091 31.3144 13.57 31.3273 13.5331 31.3165C11.2278 30.6313 8.87892 29.5975 6.45403 27.8947C6.43392 27.8797 6.41939 27.856 6.41716 27.8313C5.92324 22.7733 6.93007 17.6518 10.6054 12.4013C10.6143 12.3873 10.6277 12.3765 10.6434 12.3701C12.4514 11.5762 14.3891 10.9921 16.4139 10.6586C16.4508 10.6532 16.4877 10.6694 16.5067 10.7006C16.757 11.1244 17.0431 11.6676 17.2364 12.1119C19.3707 11.7999 21.5386 11.7999 23.7176 12.1119C23.9109 11.6773 24.187 11.1244 24.4362 10.7006C24.4552 10.6683 24.492 10.6522 24.5289 10.6586Z" fill="#79C043"/>
</svg>
