<svg width="42" height="42" viewBox="0 0 42 42" fill="none" xmlns="http://www.w3.org/2000/svg">
<path fill-rule="evenodd" clip-rule="evenodd" d="M21 42C32.598 42 42 32.598 42 21C42 9.40202 32.598 0 21 0C9.40202 0 0 9.40202 0 21C0 32.598 9.40202 42 21 42ZM24.4864 13.377C25.0423 13.377 25.9263 13.4748 26.5808 13.6057L27.1691 9.90815C25.8932 9.64635 24.9114 9.45 23.5701 9.45C19.7093 9.45 18.1716 11.2826 18.1716 14.5543V16.9429H15.75V20.8044H18.1716V32.55H22.8833V20.8044H26.3182L26.6462 16.9429H22.8833V15.0787C22.8833 14.0315 22.981 13.377 24.4864 13.377Z" fill="#79C043"/>
</svg>
