<svg width="42" height="42" viewBox="0 0 42 42" fill="none" xmlns="http://www.w3.org/2000/svg">
<path fill-rule="evenodd" clip-rule="evenodd" d="M15.7859 39.7133C15.7861 39.7304 15.7862 39.7474 15.7864 39.7643L15.7859 39.7133Z" fill="#C4C4C4"/>
<path fill-rule="evenodd" clip-rule="evenodd" d="M42 21.5315C42 26.6683 40.2456 31.3849 37.3176 35.0859C37.253 35.1675 37.1879 35.2486 37.1222 35.3292C37.0571 35.4092 36.9914 35.4886 36.9251 35.5675C34.4677 38.4959 31.2551 40.7389 27.5973 41.979L27.5447 41.9788C27.5791 41.9737 27.6143 41.9676 27.6502 41.9605L26.9434 41.9607C26.4108 41.823 26.2063 41.3482 26.2063 40.9242C26.2063 40.6911 26.2091 40.2817 26.2129 39.7341L26.2129 39.7309L26.2129 39.7294C26.2206 38.619 26.2321 36.9429 26.2321 35.0184C26.2321 33.0093 25.5604 31.6954 24.8063 31.0306C29.4847 30.4979 34.3952 28.6778 34.3952 20.4059C34.3952 18.0558 33.5817 16.1339 32.2358 14.6284C32.4524 14.0838 33.173 11.8949 32.0269 8.93008C32.0269 8.93008 30.2672 8.35113 26.2579 11.1375C24.5807 10.6603 22.7836 10.4211 21.0006 10.4131C19.2151 10.4211 17.418 10.6603 15.7434 11.1375C11.7315 8.35113 9.96789 8.93008 9.96789 8.93008C8.82568 11.8949 9.54633 14.0838 9.76291 14.6284C8.41959 16.1339 7.60097 18.0558 7.60097 20.4059C7.60097 28.6566 12.5037 30.5045 17.1666 31.0477C16.5659 31.5857 16.0244 32.5348 15.8336 33.9266C14.6373 34.4765 11.5948 35.4269 9.72166 32.1369C9.72166 32.1369 8.61297 30.0709 6.50517 29.9176C6.50517 29.9176 4.45409 29.8912 6.36078 31.2275C6.36078 31.2275 7.73762 31.8897 8.6929 34.376C8.6929 34.376 9.92535 38.5635 15.7666 37.2629C15.7714 38.1063 15.778 38.8525 15.7836 39.4596L15.7859 39.7111L15.7859 39.7133L15.7864 39.7643C15.7913 40.2966 15.795 40.6954 15.795 40.9242C15.795 41.3512 15.5809 41.8307 15.0336 41.963L14.3614 41.9632C14.4138 41.973 14.4646 41.9807 14.5138 41.9863H14.4246C9.96436 40.4799 6.16468 37.4827 3.58647 33.5699C3.40957 33.3014 3.23842 33.0286 3.0732 32.7517C3.04016 32.6964 3.00735 32.6408 2.97479 32.5851C1.08587 29.3539 0 25.5727 0 21.5315C0 9.63996 9.40202 0 21 0C32.598 0 42 9.63996 42 21.5315Z" fill="#79C043"/>
</svg>
