<svg width="42" height="42" viewBox="0 0 42 42" fill="none" xmlns="http://www.w3.org/2000/svg">
<path d="M21 42C9.4017 42 0 32.5983 0 21C0 9.4017 9.4017 0 21 0C32.5983 0 42 9.4017 42 21C42 32.5983 32.5983 42 21 42ZM35.007 21C34.9854 20.4089 34.7933 19.8367 34.4538 19.3523C34.1143 18.8679 33.6419 18.4921 33.0936 18.2701C32.5453 18.0481 31.9446 17.9895 31.3637 18.1012C30.7829 18.213 30.2468 18.4904 29.82 18.9C27.4311 17.2761 24.6229 16.379 21.735 16.317L23.1 9.765L27.594 10.71C27.6474 11.2066 27.8761 11.6679 28.239 12.0111C28.6019 12.3543 29.0752 12.5569 29.5741 12.5826C30.0729 12.6083 30.5645 12.4553 30.9607 12.1512C31.3569 11.847 31.6317 11.4116 31.7358 10.9231C31.8399 10.4346 31.7665 9.92497 31.5287 9.48571C31.291 9.04646 30.9044 8.70633 30.4385 8.52639C29.9726 8.34645 29.4577 8.33848 28.9864 8.5039C28.5152 8.66933 28.1183 8.99732 27.867 9.429L22.722 8.4C22.6379 8.38154 22.5509 8.37996 22.4661 8.39536C22.3814 8.41076 22.3005 8.44283 22.2282 8.48971C22.156 8.53659 22.0937 8.59735 22.0451 8.66847C21.9965 8.73958 21.9625 8.81964 21.945 8.904L20.391 16.191C17.4676 16.2351 14.6208 17.1329 12.201 18.774C11.8773 18.4694 11.4912 18.2388 11.0695 18.0983C10.6478 17.9577 10.2006 17.9105 9.75881 17.96C9.31707 18.0095 8.89136 18.1544 8.5112 18.3848C8.13103 18.6151 7.80549 18.9253 7.55715 19.294C7.30881 19.6627 7.14359 20.0809 7.07296 20.5198C7.00233 20.9586 7.02796 21.4076 7.14809 21.8356C7.26822 22.2635 7.47996 22.6603 7.76866 22.9983C8.05735 23.3362 8.41608 23.6074 8.82 23.793C8.79635 24.1005 8.79635 24.4095 8.82 24.717C8.82 29.421 14.301 33.243 21.063 33.243C27.825 33.243 33.306 29.421 33.306 24.717C33.3296 24.4095 33.3296 24.1005 33.306 23.793C33.8242 23.5354 34.2589 23.1365 34.56 22.6422C34.861 22.148 35.016 21.5786 35.007 21ZM14.007 23.1C14.007 22.543 14.2282 22.0089 14.6221 21.6151C15.0159 21.2213 15.55 21 16.107 21C16.664 21 17.1981 21.2213 17.5919 21.6151C17.9858 22.0089 18.207 22.543 18.207 23.1C18.207 23.657 17.9858 24.1911 17.5919 24.5849C17.1981 24.9788 16.664 25.2 16.107 25.2C15.55 25.2 15.0159 24.9788 14.6221 24.5849C14.2282 24.1911 14.007 23.657 14.007 23.1ZM26.208 28.875C24.7181 29.9978 22.885 30.5692 21.021 30.492C19.157 30.5692 17.3239 29.9978 15.834 28.875C15.7447 28.7662 15.6991 28.6281 15.706 28.4875C15.7129 28.3469 15.7718 28.2139 15.8714 28.1144C15.9709 28.0148 16.1039 27.9559 16.2445 27.949C16.3851 27.9421 16.5232 27.9877 16.632 28.077C17.8946 29.0031 19.4357 29.4699 21 29.4C22.5662 29.4852 24.1145 29.0333 25.389 28.119C25.4427 28.0588 25.5082 28.0104 25.5815 27.9766C25.6547 27.9429 25.7341 27.9245 25.8147 27.9228C25.8953 27.921 25.9755 27.9358 26.0501 27.9663C26.1248 27.9968 26.1923 28.0424 26.2486 28.1001C26.3049 28.1579 26.3487 28.2266 26.3774 28.302C26.406 28.3774 26.4188 28.4578 26.415 28.5384C26.4111 28.6189 26.3908 28.6979 26.3552 28.7702C26.3196 28.8426 26.2695 28.9068 26.208 28.959V28.875ZM25.83 25.284C25.4147 25.284 25.0086 25.1608 24.6633 24.9301C24.318 24.6993 24.0488 24.3714 23.8899 23.9876C23.7309 23.6039 23.6893 23.1817 23.7703 22.7743C23.8514 22.367 24.0514 21.9928 24.3451 21.6991C24.6388 21.4054 25.0129 21.2054 25.4203 21.1244C25.8277 21.0433 26.2499 21.0849 26.6336 21.2439C27.0174 21.4028 27.3453 21.672 27.5761 22.0173C27.8068 22.3626 27.93 22.7687 27.93 23.184C27.9414 23.4685 27.8948 23.7524 27.7931 24.0184C27.6913 24.2844 27.5366 24.5269 27.3382 24.7312C27.1398 24.9354 26.9019 25.0972 26.639 25.2067C26.3762 25.3162 26.0938 25.3711 25.809 25.368L25.83 25.284Z" fill="#79C043"/>
</svg>
