<svg width="42" height="42" viewBox="0 0 42 42" fill="none" xmlns="http://www.w3.org/2000/svg">
<path fill-rule="evenodd" clip-rule="evenodd" d="M21 42C32.598 42 42 32.598 42 21C42 9.40202 32.598 0 21 0C9.40202 0 0 9.40202 0 21C0 32.598 9.40202 42 21 42ZM29.4438 10.623L8.04723 20.0173C7.27684 20.3555 7.33319 21.5224 8.1322 21.7768L12.5447 23.182C13.3869 23.4502 14.2988 23.3115 15.0342 22.8035L24.9825 15.9304C25.2825 15.7231 25.6094 16.1497 25.3531 16.4139L18.1922 23.797C17.4975 24.5132 17.6354 25.7267 18.471 26.2507L26.4884 31.2784C27.3877 31.8423 28.5445 31.2759 28.7127 30.1892L31.4798 12.3132C31.6669 11.105 30.5181 10.1513 29.4438 10.623Z" fill="#79C043"/>
</svg>
