<svg width="42" height="42" viewBox="0 0 42 42" fill="none" xmlns="http://www.w3.org/2000/svg">
<path fill-rule="evenodd" clip-rule="evenodd" d="M21 42C32.598 42 42 32.598 42 21C42 9.40202 32.598 0 21 0C9.40202 0 0 9.40202 0 21C0 32.598 9.40202 42 21 42ZM30.6308 13.738C31.6765 13.6128 32.6735 13.3357 33.6 12.9241C32.907 13.9606 32.0301 14.8711 31.0189 15.6018C31.0298 15.8227 31.034 16.0461 31.034 16.2704C31.034 23.1017 25.8339 30.9795 16.3249 30.9795C13.4052 30.9795 10.688 30.1228 8.4 28.6562C8.80401 28.7049 9.21558 28.7293 9.63388 28.7293C12.0563 28.7293 14.2855 27.902 16.0544 26.5161C13.7924 26.4741 11.8824 24.979 11.2247 22.9253C11.5405 22.9858 11.8648 23.0185 12.1982 23.0185C12.6694 23.0185 13.1264 22.9547 13.5598 22.8371C11.1962 22.3608 9.41297 20.2719 9.41297 17.7664V17.7017C10.111 18.0889 10.9072 18.3216 11.7556 18.3484C10.3671 17.4211 9.45581 15.8387 9.45581 14.0454C9.45581 13.098 9.71031 12.2101 10.1555 11.4466C12.7056 14.5746 16.5147 16.6333 20.8119 16.8483C20.7237 16.4695 20.6775 16.0747 20.6775 15.6699C20.6775 12.8149 22.9923 10.5 25.8473 10.5C27.3332 10.5 28.6779 11.1283 29.6212 12.1329C30.7979 11.9002 31.9058 11.471 32.9037 10.878C32.5182 12.085 31.6984 13.0979 30.6308 13.738Z" fill="#79C043"/>
</svg>
